<?xml version="1.0" encoding="UTF-8"?>
<svg width="68px" height="69px" viewBox="0 0 68 69" version="1.1" xmlns="http://www.w3.org/2000/svg" xmlns:xlink="http://www.w3.org/1999/xlink">
    <!-- Generator: Sketch 46.2 (44496) - http://www.bohemiancoding.com/sketch -->
    <title>collection</title>
    <desc>Created with Sketch.</desc>
    <defs></defs>
    <g id="Page-1" stroke="none" stroke-width="1" fill="none" fill-rule="evenodd">
        <g id="collection" transform="translate(2.000000, 2.000000)">
            <path d="M59.4285714,64.1238592 L4.57142857,64.1238592 C2.04342857,64.1238592 0,62.0817627 0,59.5554107 L0,4.73402868 C0,2.20767666 2.04342857,0.165580183 4.57142857,0.165580183 L59.4285714,0.165580183 C61.9565714,0.165580183 64,2.20767666 64,4.73402868 L64,59.5554107 C64,62.0817627 61.9565714,64.1238592 59.4285714,64.1238592 Z" id="Stroke-399" stroke="#00BC9E" stroke-width="4" stroke-linecap="round" stroke-linejoin="round"></path>
            <path d="M22.8571429,45.8500652 C22.8571429,48.3764172 20.8137143,50.4185137 18.2857143,50.4185137 C15.7577143,50.4185137 13.7142857,48.3764172 13.7142857,45.8500652 C13.7142857,43.3237132 15.7577143,41.2816167 18.2857143,41.2816167 C20.8137143,41.2816167 22.8571429,43.3237132 22.8571429,45.8500652" id="Fill-400" fill="#00BC9E" fill-rule="nonzero"></path>
            <path d="M50.2857143,18.4393742 C50.2857143,20.9657262 48.2422857,23.0078227 45.7142857,23.0078227 C43.1862857,23.0078227 41.1428571,20.9657262 41.1428571,18.4393742 C41.1428571,15.9130222 43.1862857,13.8709257 45.7142857,13.8709257 C48.2422857,13.8709257 50.2857143,15.9130222 50.2857143,18.4393742" id="Fill-401" fill="#00BC9E" fill-rule="nonzero"></path>
            <path d="M22.8571429,18.4393742 C22.8571429,20.9657262 20.8137143,23.0078227 18.2857143,23.0078227 C15.7577143,23.0078227 13.7142857,20.9657262 13.7142857,18.4393742 C13.7142857,15.9130222 15.7577143,13.8709257 18.2857143,13.8709257 C20.8137143,13.8709257 22.8571429,15.9130222 22.8571429,18.4393742" id="Fill-402" fill="#00BC9E" fill-rule="nonzero"></path>
            <path d="M50.2857143,45.8500652 C50.2857143,48.3764172 48.2422857,50.4185137 45.7142857,50.4185137 C43.1862857,50.4185137 41.1428571,48.3764172 41.1428571,45.8500652 C41.1428571,43.3237132 43.1862857,41.2816167 45.7142857,41.2816167 C48.2422857,41.2816167 50.2857143,43.3237132 50.2857143,45.8500652" id="Fill-403" fill="#00BC9E" fill-rule="nonzero"></path>
            <path d="M22.8571429,32.1447197 C22.8571429,34.6710717 20.8137143,36.7131682 18.2857143,36.7131682 C15.7577143,36.7131682 13.7142857,34.6710717 13.7142857,32.1447197 C13.7142857,29.6183677 15.7577143,27.5762712 18.2857143,27.5762712 C20.8137143,27.5762712 22.8571429,29.6183677 22.8571429,32.1447197" id="Fill-404" fill="#00BC9E" fill-rule="nonzero"></path>
            <path d="M50.2857143,32.1447197 C50.2857143,34.6710717 48.2422857,36.7131682 45.7142857,36.7131682 C43.1862857,36.7131682 41.1428571,34.6710717 41.1428571,32.1447197 C41.1428571,29.6183677 43.1862857,27.5762712 45.7142857,27.5762712 C48.2422857,27.5762712 50.2857143,29.6183677 50.2857143,32.1447197" id="Fill-405" fill="#00BC9E" fill-rule="nonzero"></path>
        </g>
    </g>
</svg>