<?xml version="1.0" encoding="UTF-8"?>
<svg width="47px" height="47px" viewBox="0 0 47 47" version="1.1" xmlns="http://www.w3.org/2000/svg" xmlns:xlink="http://www.w3.org/1999/xlink">
    <!-- Generator: Sketch 46.2 (44496) - http://www.bohemiancoding.com/sketch -->
    <title>customer</title>
    <desc>Created with Sketch.</desc>
    <defs></defs>
    <g id="Page-1" stroke="none" stroke-width="1" fill="none" fill-rule="evenodd">
        <g id="customer" transform="translate(2.000000, 2.000000)" stroke="#00BC9E" stroke-width="4">
            <path d="M21,42.7574098 L21,29.7324641" id="Stroke-253" stroke-linecap="round" stroke-linejoin="round"></path>
            <path d="M12,43 L30,43" id="Stroke-254" stroke-linecap="round" stroke-linejoin="round"></path>
            <path d="M21.5,29.7324641 L21.5,29.7324641 C14.7152143,29.7324641 9.21428571,23.9005447 9.21428571,16.7075185 L9.21428571,3.68257279 C9.21428571,1.88187405 10.5902857,0.426336375 12.2857143,0.426336375 L30.7142857,0.426336375 C32.4097143,0.426336375 33.7857143,1.88187405 33.7857143,3.68257279 L33.7857143,16.7075185 C33.7857143,23.9005447 28.2847857,29.7324641 21.5,29.7324641 Z" id="Stroke-255"></path>
            <path d="M9.21428571,16.7075185 L6.14285714,16.7075185 C2.752,16.7075185 0,13.7899306 0,10.1950456 C0,6.60016063 2.752,3.68257279 6.14285714,3.68257279 L9.21428571,3.68257279" id="Stroke-256"></path>
            <path d="M33.7857143,3.68257279 L36.8571429,3.68257279 C40.248,3.68257279 43,6.60016063 43,10.1950456 C43,13.7899306 40.248,16.7075185 36.8571429,16.7075185 L33.7857143,16.7075185" id="Stroke-257"></path>
        </g>
    </g>
</svg>