<?xml version="1.0" encoding="UTF-8"?>
<svg width="62px" height="62px" viewBox="0 0 62 62" version="1.1" xmlns="http://www.w3.org/2000/svg" xmlns:xlink="http://www.w3.org/1999/xlink">
    <!-- Generator: Sketch 46.2 (44496) - http://www.bohemiancoding.com/sketch -->
    <title>prices</title>
    <desc>Created with Sketch.</desc>
    <defs></defs>
    <g id="Page-1" stroke="none" stroke-width="1" fill="none" fill-rule="evenodd">
        <g id="prices" transform="translate(2.000000, 2.000000)">
            <path d="M57.2123147,29.4510743 C57.2123147,45.2218009 44.4049294,58.006451 28.6061574,58.006451 C12.8073853,58.006451 0,45.2218009 0,29.4510743 C0,13.6803476 12.8073853,0.895697523 28.6061574,0.895697523 C44.4049294,0.895697523 57.2123147,13.6803476 57.2123147,29.4510743 Z" id="Stroke-49" stroke="#00BC9E" stroke-width="4" stroke-linecap="round" stroke-linejoin="round"></path>
            <path d="M16.3463756,37.6097533 C16.3463756,37.6097533 20.4329695,45.7684324 28.6061574,45.7684324 C36.7793452,45.7684324 40.8659391,37.6097533 40.8659391,37.6097533" id="Stroke-50" stroke="#00BC9E" stroke-width="3" stroke-linecap="round" stroke-linejoin="round"></path>
            <path d="M24.5195635,21.2923952 C24.5195635,23.5441906 22.6887694,25.3717347 20.4329695,25.3717347 C18.1771697,25.3717347 16.3463756,23.5441906 16.3463756,21.2923952 C16.3463756,19.0405998 18.1771697,17.2130557 20.4329695,17.2130557 C22.6887694,17.2130557 24.5195635,19.0405998 24.5195635,21.2923952" id="Fill-51" fill="#00BC9E" fill-rule="nonzero"></path>
            <path d="M40.8659391,21.2923952 C40.8659391,23.5441906 39.035145,25.3717347 36.7793452,25.3717347 C34.5235454,25.3717347 32.6927513,23.5441906 32.6927513,21.2923952 C32.6927513,19.0405998 34.5235454,17.2130557 36.7793452,17.2130557 C39.035145,17.2130557 40.8659391,19.0405998 40.8659391,21.2923952" id="Fill-52" fill="#00BC9E" fill-rule="nonzero"></path>
        </g>
    </g>
</svg>