<?xml version="1.0" encoding="UTF-8"?>
<svg width="68px" height="69px" viewBox="0 0 68 69" version="1.1" xmlns="http://www.w3.org/2000/svg" xmlns:xlink="http://www.w3.org/1999/xlink">
    <!-- Generator: Sketch 46.2 (44496) - http://www.bohemiancoding.com/sketch -->
    <title>world</title>
    <desc>Created with Sketch.</desc>
    <defs></defs>
    <g id="Page-1" stroke="none" stroke-width="1" fill="none" fill-rule="evenodd">
        <g id="world" transform="translate(2.000000, 3.000000)" stroke="#00BC9E" stroke-width="4">
            <path d="M32,0 L29.9062857,1.73144198 L0,34.8481252 L0,59.3898305 C0,61.9116141 2.048,63.958279 4.57142857,63.958279 L18.2857143,63.958279 C20.8091429,63.958279 22.8571429,61.9116141 22.8571429,59.3898305 L22.8571429,41.1160365 C22.8571429,38.5942529 24.9051429,36.547588 27.4285714,36.547588 L36.5714286,36.547588 C39.0948571,36.547588 41.1428571,38.5942529 41.1428571,41.1160365 L41.1428571,59.3898305 C41.1428571,61.9116141 43.1908571,63.958279 45.7142857,63.958279 L59.4285714,63.958279 C61.952,63.958279 64,61.9116141 64,59.3898305 L64,34.8481252 L34.0937143,1.73144198 L32,0 Z" id="Stroke-1"></path>
        </g>
    </g>
</svg>